#!OML:ASF E:\CV Data\Top Level 1\Subject 1\Session 1\player.ASF
:FULLY-SPECIFIED
:DEGREES
443
root 3.58333 13.7043 6.36804 -165.078 -182.296 168.966
lowerback 28.6927 2.29172 -0.841669
upperback -1.72533 2.58197 -0.776649
thorax -17.3316 1.13758 -1.45987
lowerneck -18.0994 -3.61361 -13.3034
upperneck 1.31249 -3.525 22.5093
head 4.18303 -0.676406 9.21565
rclavicle 3.02153e-014 -3.18055e-015
rhumerus 132.139 -49.2968 -142.358
rradius 75.8753
rwrist -26.2262
rhand -46.9363 24.3332
rfingers 7.12502
rthumb -19.646 -4.69409
lclavicle 3.02153e-014 -3.18055e-015
lhumerus -14.4955 16.64 78.4304
lradius 31.1525
lwrist 9.15303
lhand -27.6878 15.1846
lfingers 7.12502
lthumb -1.08436 45.1616
rfemur 5.62923 -5.94354 33.8941
rtibia 58.9963
rfoot 19.6731 6.84942
rtoes -15.4267
lfemur -80.9684 -0.14931 -22.2967
ltibia 59.8996
lfoot 10.367 -2.09294
ltoes 15.8137
444
root 3.50911 13.7751 6.39978 -165.12 -182.728 169.625
lowerback 29.8227 3.01559 -1.01537
upperback -0.816384 3.36211 -1.22662
thorax -16.7467 1.4676 -2.19083
lowerneck -17.0429 -4.54635 -14.2272
upperneck -1.26866 -4.33946 22.9082
head 3.45304 -1.20134 9.40185
rclavicle 6.59965e-014 0
rhumerus 125.892 -50.6599 -138.151
rradius 68.0345
rwrist -22.6405
rhand -45.1964 21.5776
rfingers 7.12502
rthumb -17.9726 -7.61194
lclavicle 6.59965e-014 0
lhumerus -12.6919 14.5383 80.7427
lradius 32.4879
lwrist 8.6958
lhand -27.7471 14.5043
lfingers 7.12502
lthumb -1.14161 44.4809
rfemur 3.24527 -5.96967 33.3743
rtibia 62.0935
rfoot 18.8313 6.2705
rtoes -14.4822
lfemur -80.2447 -0.187302 -23.0155
ltibia 59.1452
lfoot 10.2854 -2.5908
ltoes 15.8328
445
root 3.43149 13.8667 6.43462 -165.097 -182.926 170.25
lowerback 30.9381 3.72068 -1.25162
upperback 0.0402357 4.08277 -1.67969
thorax -16.2018 1.78146 -2.86931
lowerneck -15.9958 -5.40178 -14.9348
upperneck -3.63031 -5.14142 23.1762
head 2.79213 -1.71508 9.5308
rclavicle -2.38542e-015 1.59028e-015
rhumerus 117.955 -52.7207 -130.538
rradius 58.4991
rwrist -20.0554
rhand -42.3912 19.6799
rfingers 7.12502
rthumb -15.272 -9.7363
lclavicle -2.38542e-015 1.59028e-015
lhumerus -11.4021 12.1368 82.5486
lradius 34.1672
lwrist 8.68652
lhand -28.0396 13.5673
lfingers 7.12502
lthumb -1.42416 43.5423
rfemur 0.972974 -6.06781 32.7535
rtibia 64.8383
rfoot 18.1465 5.19079
rtoes -12.6759
lfemur -79.4415 0.158904 -23.843
ltibia 58.2362
lfoot 10.1106 -3.18853
ltoes 15.84
446
root 3.34929 13.977 6.47544 -164.997 -183.041 170.834
lowerback 32.0554 4.35568 -1.51073
upperback 0.809546 4.6928 -2.12706
thorax -15.7475 2.05127 -3.49031
lowerneck -14.9786 -6.18297 -15.4267
upperneck -5.77291 -5.92967 23.3632
head 2.19709 -2.21592 9.61528
rclavicle -4.13472e-014 3.10104e-014
rhumerus 106.183 -54.8097 -117.257
rradius 48.3569
rwrist -20.5902
rhand -38.8444 18.2377
rfingers 7.12502
rthumb -11.8536 -11.4068
lclavicle -4.13472e-014 3.10104e-014
lhumerus -10.6126 9.49477 83.8556
lradius 36.1444
lwrist 9.08071
lhand -28.6356 12.5639
lfingers 7.12502
lthumb -1.9998 42.5343
rfemur -1.12783 -6.33598 32.1219
rtibia 67.1382
rfoot 17.5112 3.62864
rtoes -10.1685
lfemur -78.5944 0.767497 -24.759
ltibia 57.188
lfoot 9.84927 -3.91812
ltoes 15.7667
447
root 3.2626 14.1002 6.5234 -164.832 -183.213 171.325
lowerback 33.1893 4.8626 -1.70499
upperback 1.4725 5.15781 -2.52809
thorax -15.4118 2.25508 -4.04563
lowerneck -13.9738 -6.87999 -15.7624
upperneck -7.73295 -6.6705 23.5034
head 1.64561 -2.68966 9.67784
rclavicle 1.74931e-014 -2.22639e-014
rhumerus 86.0336 -54.8724 -93.7015
rradius 38.9243
rwrist -24.655
rhand -35.9615 14.4609
rfingers 7.12502
rthumb -9.07265 -15.324
lclavicle 1.74931e-014 -2.22639e-014
lhumerus -10.3168 6.7598 84.7134
lradius 38.3799
lwrist 9.60086
lhand -29.4432 11.9641
lfingers 7.12502
lthumb -2.7797 41.9258
rfemur -2.98551 -6.84652 31.5945
rtibia 68.9354
rfoot 16.7808 1.62869
rtoes -7.47672
lfemur -77.7404 1.51234 -25.6798
ltibia 56.0382
lfoot 9.5229 -4.77117
ltoes 15.6053
448
root 3.17316 14.2313 6.5797 -164.637 -183.507 171.661
lowerback 34.3527 5.2086 -1.74482
upperback 2.02366 5.4796 -2.84457
thorax -15.204 2.38785 -4.54321
lowerneck -12.9469 -7.48156 -16.0095
upperneck -9.54755 -7.332 23.6043
head 1.11408 -3.12283 9.735
rclavicle -3.18055e-014 5.56597e-015
rhumerus 55.9751 -45.0499 -57.3454
rradius 33.3421
rwrist -29.7693
rhand -35.6597 5.10158
rfingers 7.12502
rthumb -8.78138 -24.6957
lclavicle -3.18055e-014 5.56597e-015
lhumerus -10.5134 4.11085 85.1923
lradius 40.7753
lwrist 9.99673
lhand -30.3277 11.7354
lfingers 7.12502
lthumb -3.63393 41.6842
rfemur -4.50856 -7.60601 31.2486
rtibia 70.1943
rfoot 15.8201 -0.741157
rtoes -5.1536
lfemur -76.8881 2.30209 -26.49
ltibia 54.8353
lfoot 9.15652 -5.69593
ltoes 15.3696
449
root 3.08238 14.3655 6.6446 -164.439 -183.95 171.81
lowerback 35.5319 5.37721 -1.58587
upperback 2.47183 5.66654 -3.05161
thorax -15.1077 2.45138 -4.9794
lowerneck -11.9003 -7.98138 -16.2324
upperneck -11.2162 -7.89461 23.6779
head 0.600119 -3.50331 9.80287
rclavicle -6.36111e-015 -7.15625e-015
rhumerus 37.2154 -19.8338 -27.5587
rradius 36.0499
rwrist -37.3624
rhand -35.9131 -1.71258
rfingers 7.12502
rthumb -9.0259 -31.4995
lclavicle -6.36111e-015 -7.15625e-015
lhumerus -11.1803 1.71285 85.3833
lradius 43.2163
lwrist 10.1063
lhand -31.2164 11.7342
lfingers 7.12502
lthumb -4.4921 41.6666
rfemur -5.6438 -8.59602 31.1108
rtibia 70.9107
rfoot 14.5455 -3.34395
rtoes -3.50759
lfemur -76.0445 3.05498 -27.0958
ltibia 53.6247
lfoot 8.7859 -6.62447
ltoes 15.112
450
root 2.99041 14.5007 6.71875 -164.298 -184.528 171.797
lowerback 36.7554 5.38244 -1.25783
upperback 2.83643 5.73105 -3.15941
thorax -15.1136 2.45236 -5.35255
lowerneck -10.874 -8.38797 -16.4575
upperneck -12.7107 -8.36449 23.7472
head 0.12116 -3.8296 9.88927
rclavicle 4.05521e-014 4.13472e-014
rhumerus 35.662 2.46558 -11.0783
rradius 40.4052
rwrist -29.7794
rhand -34.2255 -5.21629
rfingers 7.12502
rthumb -7.39726 -35.067
lclavicle 4.05521e-014 4.13472e-014
lhumerus -12.263 -0.275531 85.3487
lradius 45.6093
lwrist 9.77394
lhand -31.8933 11.8515
lfingers 7.12502
lthumb -5.14571 41.769
rfemur -6.30915 -9.77193 31.1271
rtibia 71.0884
rfoot 12.978 -5.98134
rtoes -2.43679
lfemur -75.1583 3.73939 -27.479
ltibia 52.4398
lfoot 8.4234 -7.51623
ltoes 14.8865
451
root 2.89613 14.6355 6.80339 -164.2 -185.21 171.688
lowerback 38.0407 5.26833 -0.862353
upperback 3.05775 5.69088 -3.20025
thorax -15.1888 2.40457 -5.65168
lowerneck -9.93095 -8.72676 -16.6663
upperneck -13.9868 -8.7725 23.8485
head -0.292313 -4.11404 9.99295
rclavicle 3.18055e-015 -3.4191e-014
rhumerus 41.1248 14.0052 -2.19366
rradius 42.2806
rwrist -11.0053
rhand -31.9537 -5.90667
rfingers 7.12502
rthumb -5.20398 -35.8228
lclavicle 3.18055e-015 -3.4191e-014
lhumerus -13.6539 -1.74655 85.1356
lradius 47.8538
lwrist 8.93791
lhand -32.1679 12.0098
lfingers 7.12502
lthumb -5.41085 41.9207
rfemur -6.5266 -11.0727 31.2106
rtibia 70.7579
rfoot 11.2474 -8.39552
rtoes -1.60261
lfemur -74.2426 4.32495 -27.6698
ltibia 51.3029
lfoot 8.07793 -8.34191
ltoes 14.7257
452
root 2.79849 14.7694 6.89924 -164.093 -185.97 171.548
lowerback 39.1637 5.08196 -0.454864
upperback 3.29681 5.58492 -3.22057
thorax -15.2934 2.32876 -5.89173
lowerneck -9.13814 -9.04773 -16.8525
upperneck -15.0126 -9.17474 24.0572
head -0.602449 -4.38388 10.1244
rclavicle -3.02153e-014 8.74653e-015
rhumerus 48.0711 19.0261 1.32269
rradius 42.439
rwrist 6.87395
rhand -30.7725 -8.08689
rfingers 7.12502
rthumb -4.06346 -38.0279
lclavicle -3.02153e-014 8.74653e-015
lhumerus -15.203 -2.68056 84.7833
lradius 49.8473
lwrist 7.63152
lhand -31.9148 12.0909
lfingers 7.12502
lthumb -5.1665 42.0079
rfemur -6.37373 -12.4319 31.2906
rtibia 69.9629
rfoot 9.57144 -10.3459
rtoes -0.823876
lfemur -73.3493 4.79011 -27.7165
ltibia 50.2322
lfoot 7.75486 -9.09386
ltoes 14.6456
453
root 2.69636 14.8999 7.00585 -163.913 -186.79 171.406
lowerback 40.1006 4.88694 -0.0987234
upperback 3.48669 5.46346 -3.23537
thorax -15.3849 2.25149 -6.08078
lowerneck -8.4844 -9.39065 -16.9947
upperneck -15.83 -9.61451 24.4255
head -0.809044 -4.66762 10.2902
rclavicle -1.66979e-014 -4.53229e-014
rhumerus 54.8408 22.151 1.51575
rradius 42.4822
rwrist 12.5005
rhand -30.9012 -9.9306
rfingers 7.12502
rthumb -4.1877 -39.8692
lclavicle -1.66979e-014 -4.53229e-014
lhumerus -16.7469 -3.13365 84.3332
lradius 51.4769
lwrist 5.98659
lhand -31.1968 11.9792
lfingers 7.12502
lthumb -4.47321 41.9119
rfemur -5.95705 -13.7761 31.3568
rtibia 68.7683
rfoot 8.20467 -11.676
rtoes 0.0367047
lfemur -72.5614 5.1133 -27.6351
ltibia 49.2505
lfoot 7.46281 -9.76504
ltoes 14.6352
454
root 2.59024 15.024 7.12213 -163.608 -187.667 171.26
lowerback 40.7668 4.74108 0.209854
upperback 3.64214 5.3988 -3.244
thorax -15.4146 2.20547 -6.24831
lowerneck -7.91533 -9.79255 -17.0645
upperneck -16.5368 -10.1335 24.9646
head -0.938664 -4.99572 10.4878
rclavicle -4.45278e-014 -2.62396e-014
rhumerus 60.6363 24.7808 -1.1965
rradius 42.5648
rwrist 8.64469
rhand -31.6116 -9.11604
rfingers 7.12502
rthumb -4.87369 -39.04
lclavicle -4.45278e-014 -2.62396e-014
lhumerus -18.1232 -3.25647 83.8385
lradius 52.6544
lwrist 4.20624
lhand -30.1712 11.5311
lfingers 7.12502
lthumb -3.48277 41.4824
rfemur -5.37716 -15.0437 31.4306
rtibia 67.2494
rfoot 7.32639 -12.3476
rtoes 0.86084
lfemur -71.9588 5.27718 -27.4201
ltibia 48.3837
lfoot 7.20319 -10.3524
ltoes 14.6297
455
root 2.48166 15.1386 7.24524 -163.148 -188.593 171.092
lowerback 41.1088 4.69169 0.477901
upperback 3.77765 5.45423 -3.21913
thorax -15.3473 2.21926 -6.39422
lowerneck -7.36272 -10.2583 -17.0675
upperneck -17.2449 -10.7308 25.6361
head -1.03597 -5.3744 10.7113
rclavicle -9.93923e-015 9.14409e-015
rhumerus 64.8207 27.3516 -6.83578
rradius 42.4844
rwrist 2.37099
rhand -31.9517 -6.89634
rfingers 7.12502
rthumb -5.20209 -36.8125
lclavicle -9.93923e-015 9.14409e-015
lhumerus -19.2262 -3.21508 83.3771
lradius 53.3609
lwrist 2.50232
lhand -29.1194 10.9122
lfingers 7.12502
lthumb -2.46704 40.8777
rfemur -4.73357 -16.1792 31.5447
rtibia 65.4991
rfoot 7.00345 -12.4097
rtoes 1.58099
lfemur -71.6031 5.25818 -27.0425
ltibia 47.6525
lfoot 6.98841 -10.8114
ltoes 14.6047
